<?xml version="1.0" encoding="UTF-8" standalone="no"?>
<svg
   xmlns:dc="http://purl.org/dc/elements/1.1/"
   xmlns:cc="http://creativecommons.org/ns#"
   xmlns:rdf="http://www.w3.org/1999/02/22-rdf-syntax-ns#"
   xmlns:svg="http://www.w3.org/2000/svg"
   xmlns="http://www.w3.org/2000/svg"
   xmlns:sodipodi="http://sodipodi.sourceforge.net/DTD/sodipodi-0.dtd"
   xmlns:inkscape="http://www.inkscape.org/namespaces/inkscape"
   inkscape:version="1.0 (4035a4fb49, 2020-05-01)"
   sodipodi:docname="icm.svg"
   id="svg46"
   xml:space="preserve"
   enable-background="new 0 0 101 72"
   viewBox="0 0 101 72"
   height="72px"
   width="101px"
   y="0px"
   x="0px"
   version="1.1"><metadata
     id="metadata52"><rdf:RDF><cc:Work
         rdf:about=""><dc:format>image/svg+xml</dc:format><dc:type
           rdf:resource="http://purl.org/dc/dcmitype/StillImage" /><dc:title></dc:title></cc:Work></rdf:RDF></metadata><defs
     id="defs50" /><sodipodi:namedview
     inkscape:current-layer="svg46"
     inkscape:window-maximized="1"
     inkscape:window-y="-9"
     inkscape:window-x="71"
     inkscape:cy="36"
     inkscape:cx="17.926557"
     inkscape:zoom="5.9097222"
     showgrid="false"
     id="namedview48"
     inkscape:window-height="1051"
     inkscape:window-width="1840"
     inkscape:pageshadow="2"
     inkscape:pageopacity="0"
     guidetolerance="10"
     gridtolerance="10"
     objecttolerance="10"
     borderopacity="1"
     bordercolor="#666666"
     pagecolor="#ffffff" /><rect
     ry="28.935369"
     y="-18"
     x="-3.5"
     height="108"
     width="108"
     id="rect54"
     style="fill:#fdacb3;fill-opacity:1;fill-rule:evenodd;stroke-width:4.46331" /><g
     transform="translate(-0.077)"
     style="fill:#4be74b;fill-opacity:1"
     id="g70"><rect
       style="fill:#4be74b;fill-opacity:1"
       x="34"
       y="23"
       fill="#FFF"
       width="7"
       height="34"
       id="rect32" /><polyline
       style="fill:#4be74b;fill-opacity:1"
       fill="#FFF"
       points="96,36.75 96,57 101,57 101,23 96,23 85,50.25 74,23 69,23 69,57 74,57 74,36.75 82.75,57 87.25,57 96,36.75 "
       id="polyline34" /><polyline
       style="fill:#4be74b;fill-opacity:1"
       fill="#FFF"
       points="96,36.75 96,57 101,57 101,23 96,23 85,50.25 74,23 69,23 69,57 74,57 74,36.75 82.75,57 87.25,57 96,36.75 "
       id="polyline36" /><path
       style="fill:#4be74b;fill-opacity:1"
       fill="#FFF"
       d="M 58.5,52 C 54.358,52 51,48.642 51,44.5 51,40.358 54.358,37 58.5,37 c 2.176,0 4.13,0.933 5.5,2.413 V 32.844 C 62.33,32.054 60.47,31.6 58.5,31.6 c -7.125,0 -12.9,5.776 -12.9,12.9 0,7.124 5.775,12.9 12.9,12.9 1.97,0 3.83,-0.455 5.5,-1.244 V 49.587 C 62.63,51.067 60.676,52 58.5,52 Z"
       id="path38" /><path
       style="fill:#4be74b;fill-opacity:1"
       fill="#FFF"
       d="M 58.5,52 C 54.358,52 51,48.642 51,44.5 51,40.358 54.358,37 58.5,37 c 2.176,0 4.13,0.933 5.5,2.413 V 32.844 C 62.33,32.054 60.47,31.6 58.5,31.6 c -7.125,0 -12.9,5.776 -12.9,12.9 0,7.124 5.775,12.9 12.9,12.9 1.97,0 3.83,-0.455 5.5,-1.244 V 49.587 C 62.63,51.067 60.676,52 58.5,52 Z"
       id="path40" /><g
       style="fill:#4be74b;fill-opacity:1"
       id="g44"><path
         style="fill:#4be74b;fill-opacity:1"
         fill="#FFF"
         d="M 64.025,60 66.95,64.746 66.804,65 H 8.32 L 8.125,64.66 37.515,7.411 49.378,31.497 c 1.904,-1.34 4.113,-2.264 6.502,-2.663 L 41.576,0 H 33.453 L 0.154,64.856 4.279,72 H 70.845 L 74.921,64.941 71.896,60 Z"
         id="path42" /></g></g></svg>
